# xmcd
#
# Track frame offsets:
#	151
#	12124
#	23929
#	37466
#	50431
#	63668
#	75639
#	87932
#	99199
#	111698
#	123443
#	135418
#	146779
#	157882
#	170019
#	182324
#	195013
#	207310
#	219677
#	232042
#	244609
#	256704
#	267607
#	279168
#	291383
#	302982
#	314917
#
# Disc length: 4350 seconds
#
# Revision: 1
# Processed by: cddbd v1.5.2PL0 Copyright (c) Steve Scherf et al.
# Submitted via: audiograbber 1.83.01
#
DISCID=9110fc1b
DTITLE=Billy Briggs - Panhandle Shuffle-And-Jive (Cremo, 2001)
DYEAR=2001
DGENRE=Country
TTITLE0=You Almost Killed My Soul
TTITLE1=Bluebonnet Waltz
TTITLE2=Xit Song
TTITLE3=Autograph Your Photograph
TTITLE4=Go To Sleep, My Baby Boy
TTITLE5=Coo Se Coo
TTITLE6=Darlin' Waltz
TTITLE7=Pretty Baby Boogie
TTITLE8=Mardi Gras In New Orleans
TTITLE9=Xit Song (Reprise)
TTITLE10=Panhandle Shuffle
TTITLE11=I'd Rather Be Anything Than What I Am
TTITLE12=Yodeling Song
TTITLE13=The Waltz You Didn't Save For Me
TTITLE14=Waitress Blues
TTITLE15=Handkerchief Full Of Tears
TTITLE16=Chew Tobacco Rag
TTITLE17=Chew Tobacco Rag No. 2
TTITLE18=It's A Crime
TTITLE19=Midnight Dreams
TTITLE20=Also Someone Else
TTITLE21=I Love To Kiss
TTITLE22=The Old-Fashioned Waltz
TTITLE23=I've Been Short-Changed
TTITLE24=A Place In The Sunshine
TTITLE25=Coyote Shuffle
TTITLE26=Amarillo Rose
EXTD=
EXTT0=
EXTT1=
EXTT2=
EXTT3=
EXTT4=
EXTT5=
EXTT6=
EXTT7=
EXTT8=
EXTT9=
EXTT10=
EXTT11=
EXTT12=
EXTT13=
EXTT14=
EXTT15=
EXTT16=
EXTT17=
EXTT18=
EXTT19=
EXTT20=
EXTT21=
EXTT22=
EXTT23=
EXTT24=
EXTT25=
EXTT26=
PLAYORDER=
